<?xml version="1.0" encoding="utf-8"?>
<!-- Generator: Adobe Illustrator 24.0.2, SVG Export Plug-In . SVG Version: 6.00 Build 0)  -->
<svg version="1.1" id="Слой_1" xmlns="http://www.w3.org/2000/svg" xmlns:xlink="http://www.w3.org/1999/xlink" x="0px" y="0px"
	 viewBox="0 0 819.2 610.9" style="enable-background:new 0 0 819.2 610.9;" xml:space="preserve">
<style type="text/css">
	.st0{fill:url(#SVGID_1_);}
	.st1{clip-path:url(#SVGID_4_);fill:url(#SVGID_5_);}
	.st2{clip-path:url(#SVGID_4_);fill:url(#SVGID_6_);}
	.st3{clip-path:url(#SVGID_4_);fill:url(#SVGID_7_);}
	.st4{stroke:#9E9E9E;stroke-width:2.7602;stroke-miterlimit:10;}
	.st5{stroke:#000000;stroke-width:2.6992;stroke-miterlimit:10;}
	.st6{fill:none;stroke:#000000;stroke-width:0.5398;stroke-miterlimit:10;}
	.st7{fill:#231F54;}
	.st8{fill:url(#SVGID_8_);}
	.st9{fill:#292969;}
	.st10{fill:#FFFFFF;}
	.st11{opacity:0.3;fill:#FFFFFF;}
	.st12{fill:#3D3169;}
	.st13{fill:url(#SVGID_9_);}
	.st14{fill:#22164E;}
	.st15{fill:#D12857;}
	.st16{fill:url(#SVGID_10_);}
	.st17{fill:url(#SVGID_11_);}
	.st18{fill:#16B2B1;}
	.st19{fill:url(#SVGID_12_);}
	.st20{fill:url(#SVGID_13_);}
	.st21{fill:url(#SVGID_14_);}
	.st22{fill:url(#SVGID_15_);}
	.st23{fill:#E5E5E5;}
	.st24{fill:url(#SVGID_16_);}
	.st25{fill:url(#SVGID_17_);}
	.st26{fill:url(#SVGID_18_);}
	.st27{fill:#CFB5A8;}
	.st28{fill:#515DCA;}
	.st29{fill:url(#SVGID_19_);}
	.st30{fill:url(#SVGID_20_);}
	.st31{opacity:0.2;}
	.st32{fill:#0D0000;}
	.st33{fill:url(#SVGID_21_);}
	.st34{fill:url(#SVGID_22_);}
	.st35{fill:url(#SVGID_23_);}
	.st36{fill:url(#SVGID_24_);}
	.st37{fill:url(#SVGID_25_);}
	.st38{fill:url(#SVGID_26_);}
	.st39{fill:url(#SVGID_27_);}
	.st40{fill:url(#SVGID_28_);}
	.st41{fill:url(#SVGID_29_);}
	.st42{fill:url(#SVGID_30_);}
	.st43{fill:url(#SVGID_31_);}
	.st44{fill:url(#SVGID_32_);}
	.st45{fill:url(#SVGID_33_);}
	.st46{fill:url(#SVGID_34_);}
	.st47{fill:url(#SVGID_35_);}
	.st48{fill:#EDD6C0;}
	.st49{fill:#796AEA;}
	.st50{fill:#E75E98;}
	.st51{fill:#4E35C6;}
	.st52{fill:#CD447E;}
	.st53{fill:#324082;}
	.st54{fill:#182668;}
	.st55{fill:#2AE2EE;}
	.st56{fill:#10C8D4;}
	.st57{fill:#D3B5A6;}
	.st58{fill:#444444;}
	.st59{fill:none;stroke:#9B786E;stroke-width:1.0484;stroke-linecap:round;stroke-linejoin:round;stroke-miterlimit:10;}
	.st60{fill:#DA518B;}
	.st61{fill:#27AEBA;}
	.st62{fill:#755CED;}
	.st63{clip-path:url(#SVGID_37_);fill:#0A3C93;}
	.st64{clip-path:url(#SVGID_37_);}
	.st65{fill:#BD0034;stroke:#FFFFFF;stroke-width:1.3458;stroke-miterlimit:10;}
	.st66{clip-path:url(#SVGID_37_);fill:#BD0034;stroke:#FFFFFF;stroke-width:2.1663;stroke-miterlimit:10;}
	.st67{clip-path:url(#SVGID_39_);fill:#F05C84;}
	.st68{clip-path:url(#SVGID_39_);fill:#FFFFFF;}
	.st69{clip-path:url(#SVGID_39_);}
	.st70{fill:#2A3560;}
	.st71{clip-path:url(#SVGID_41_);fill:#F0F0F0;}
	.st72{clip-path:url(#SVGID_41_);fill:#F05C84;}
</style>
<linearGradient id="SVGID_1_" gradientUnits="userSpaceOnUse" x1="1.818989e-12" y1="305.4314" x2="656.5389" y2="305.4314">
	<stop  offset="0" style="stop-color:#DA8FF2"/>
	<stop  offset="1" style="stop-color:#8AF2F2"/>
</linearGradient>
<path class="st0" d="M387.5,31.8C415.3,13.4,435.7,1,473.8,0.1c34.1-0.8,68.4,7.1,95,23.1c42,25.2,62.8,69.4,51.8,110
	c-11.1,41-50,74.1-76.7,110.9c-21.1,29.1-34.8,61.9-33.2,94.7c1.6,32.9,19.9,65.7,53.8,85.4c21.3,12.4,47.9,19.5,66.3,34.4
	c22.8,18.5,34.3,57.6,18.3,81.8c-18.5,27.8-81.6,38.9-116.5,46.1c-58.1,11.9-117,22.8-176.8,24.3c-59.8,1.5-121.1-7.1-170.7-31.7
	C110.6,542,61.6,475.1,29.3,413.7c-12.7-23.8-25.6-48-28.7-73.7c-3.1-25.7,4.8-53.7,28.8-72.5c31.6-24.8,81.2-27.6,122.6-41.3
	c53.5-17.6,93.1-53.4,126.8-89.8C312.6,100,343.3,61.1,387.5,31.8z"/>
<g>
	<defs>
		<path id="SVGID_2_" d="M352.2,89.7c21.5-14.4,37.3-24.1,67.2-24.5c26.7-0.3,53.8,6.4,75,19.4c33.4,20.6,50.5,56,42.6,88.3
			c-8,32.6-38,58.6-58.2,87.7c-16,23-26.2,49-24.4,75.2c1.9,26.2,16.8,52.6,43.7,68.7c16.9,10.1,38,16.1,52.6,28.1
			c18.2,15,28,46.3,15.8,65.4c-14,22-63.3,30.2-90.7,35.6c-45.4,8.9-91.4,17-138.3,17.5c-46.9,0.6-95.1-6.9-134.5-27.1
			c-59.1-30.3-98.7-84.2-125.2-133.5C67.5,371.5,57,352,54.1,331.4c-2.9-20.6,2.8-42.8,21.3-57.5c24.4-19.4,63.2-21.2,95.5-31.6
			c41.6-13.5,72.1-41.6,97.9-70.3C294.7,143.3,318.1,112.5,352.2,89.7z"/>
	</defs>
	<linearGradient id="SVGID_3_" gradientUnits="userSpaceOnUse" x1="53.3564" y1="308.1987" x2="571.9584" y2="308.1987">
		<stop  offset="0" style="stop-color:#DA8FF2"/>
		<stop  offset="1" style="stop-color:#8AF2F2"/>
	</linearGradient>
	<use xlink:href="#SVGID_2_"  style="overflow:visible;fill:url(#SVGID_3_);"/>
	<clipPath id="SVGID_4_">
		<use xlink:href="#SVGID_2_"  style="overflow:visible;"/>
	</clipPath>
	
		<linearGradient id="SVGID_5_" gradientUnits="userSpaceOnUse" x1="-1965.6293" y1="2661.0632" x2="-1079.3214" y2="2661.0632" gradientTransform="matrix(-0.8456 0.5339 -0.5339 -0.8456 501.7095 3420.4731)">
		<stop  offset="0" style="stop-color:#DA8FF2"/>
		<stop  offset="1" style="stop-color:#8AF2F2"/>
	</linearGradient>
	<polygon class="st1" points="-180,319 559.3,-42.1 916.7,395.9 177.5,757 	"/>
	
		<linearGradient id="SVGID_6_" gradientUnits="userSpaceOnUse" x1="-1511.9607" y1="-306.6541" x2="-501.5381" y2="-1459.9365" gradientTransform="matrix(-0.8456 0.5339 0.5339 0.8456 -760.7011 1419.4137)">
		<stop  offset="0" style="stop-color:#DA8FF2"/>
		<stop  offset="1" style="stop-color:#8AF2F2"/>
	</linearGradient>
	<polygon class="st2" points="-135.6,327.7 548.4,-6.4 868.1,385.2 184.1,719.4 	"/>
	
		<linearGradient id="SVGID_7_" gradientUnits="userSpaceOnUse" x1="-1072.4153" y1="3178.395" x2="-818.9585" y2="2967.3284" gradientTransform="matrix(-1.2199 0.7702 -0.6479 -1.0262 1119.7062 4008.5972)">
		<stop  offset="0" style="stop-color:#DA8FF2"/>
		<stop  offset="1" style="stop-color:#8AF2F2"/>
	</linearGradient>
	<path class="st3" d="M442,518.2c-0.6-18.9-7.4-37.5-22.2-53.1c-15.1-15.9-38.1-28.7-43.1-47.8c-6.2-23.5,17.7-42.5,34.7-61
		c38.8-42.4,44.9-103.9,13.5-153.9c-31.4-50-99.5-85.7-167.4-86.3c-55.3-0.5-105.7,20.4-148.6,46C66.6,187.4,28.5,218.8,9,258.5
		c-9.8,19.9-15,42.1-31.7,58.6c-34.7,34.4-110.9,36-130.6,77.8c-2.8,6-4.1,12.3-4.3,18.8l231.8,284L442,518.2z"/>
</g>
<g>
	<g>
		<path class="st4" d="M639.5,488.8H515c-8.4,0-15.3-7.4-15.3-16.4V205.2c0-9,6.9-16.4,15.3-16.4h124.6c8.4,0,15.3,7.4,15.3,16.4
			v267.2C654.8,481.4,648,488.8,639.5,488.8z"/>
	</g>
	<g>
		<path class="st5" d="M637.8,486H516.7c-8.2,0-14.8-7.2-14.8-16.1V207c0-8.9,6.7-16.1,14.8-16.1h121.1c8.2,0,14.8,7.2,14.8,16.1
			v262.9C652.7,478.8,646,486,637.8,486z"/>
	</g>
	<g>
		<path d="M637.8,486H516.7c-8.2,0-14.8-7.2-14.8-16.1V207c0-8.9,6.7-16.1,14.8-16.1h121.1c8.2,0,14.8,7.2,14.8,16.1v262.9
			C652.7,478.8,646,486,637.8,486z M516.7,195.4c-5.9,0-10.7,5.2-10.7,11.6v262.9c0,6.4,4.8,11.6,10.7,11.6h121.1
			c5.9,0,10.7-5.2,10.7-11.6V207c0-6.4-4.8-11.6-10.7-11.6H516.7z"/>
	</g>
	<line class="st6" x1="503.9" y1="220.5" x2="650.6" y2="220.5"/>
	<line class="st6" x1="503.9" y1="452.2" x2="650.6" y2="452.2"/>
	<g>
		<path class="st7" d="M637.8,486H516.7c-8.2,0-14.8-7.2-14.8-16.1V207c0-8.9,6.7-16.1,14.8-16.1h121.1c8.2,0,14.8,7.2,14.8,16.1
			v262.9C652.7,478.8,646,486,637.8,486z"/>
	</g>
	
		<linearGradient id="SVGID_8_" gradientUnits="userSpaceOnUse" x1="1435.2928" y1="196.0933" x2="1070.0909" y2="690.8334" gradientTransform="matrix(-1 0 0 1 1910.1359 0)">
		<stop  offset="0" style="stop-color:#32FFBE"/>
		<stop  offset="1" style="stop-color:#8059BE"/>
	</linearGradient>
	<rect x="503.9" y="220.5" class="st8" width="146.7" height="228.6"/>
	<rect x="503.6" y="220.5" class="st9" width="147.3" height="9"/>
	<path class="st10" d="M583.9,226h-13.7c-0.6,0-1-0.5-1-1v0c0-0.6,0.5-1,1-1h13.7c0.6,0,1,0.5,1,1v0
		C584.9,225.5,584.4,226,583.9,226z"/>
	<path class="st10" d="M509.8,226L509.8,226c-0.6,0-1-0.5-1-1v-0.1c0-0.6,0.5-1,1-1l0,0c0.6,0,1,0.5,1,1v0.1
		C510.8,225.5,510.3,226,509.8,226z"/>
	<path class="st10" d="M515.3,226L515.3,226c-0.6,0-1-0.5-1-1v-0.1c0-0.6,0.5-1,1-1l0,0c0.6,0,1,0.5,1,1v0.1
		C516.3,225.5,515.8,226,515.3,226z"/>
	<path class="st10" d="M520.8,226L520.8,226c-0.6,0-1-0.5-1-1v-0.1c0-0.6,0.5-1,1-1l0,0c0.6,0,1,0.5,1,1v0.1
		C521.8,225.5,521.3,226,520.8,226z"/>
	<path class="st10" d="M646.6,226.1L646.6,226.1c-0.6,0-1-0.5-1-1V225c0-0.6,0.5-1,1-1l0,0c0.6,0,1,0.5,1,1v0.1
		C647.6,225.6,647.2,226.1,646.6,226.1z"/>
	<path class="st11" d="M516.7,190.9c-8.2,0-14.8,7.2-14.8,16.1v204.7l132.5-220.9H516.7z"/>
	<path d="M579.3,201.3c0,1.3-0.9,2.3-2.1,2.3s-2.1-1-2.1-2.3c0-1.3,0.9-2.3,2.1-2.3S579.3,200,579.3,201.3z"/>
</g>
<g>
	<g id="XMLID_2_">
		<path class="st12" d="M591.5,425.7c-0.2,0-0.4,0-0.6,0h-1.1c-5,0-9.1,6.2-9.1,13.8v49.4h2.6c0,0,0-0.1,0-0.1
			c0-0.6,0.1-1.3,0.1-1.9V479c-0.1,0.1-0.1,0.1-0.1,0.2v-39.7c0-5.4,2.9-9.8,6.4-9.8h1.1c3.6,0,6.5,4.4,6.5,9.8v33.9h0v15.4h2.5h0.1
			v-49.3C600,432.1,596.2,426.1,591.5,425.7z"/>
		
			<linearGradient id="SVGID_9_" gradientUnits="userSpaceOnUse" x1="1208.697" y1="459.1911" x2="1222.7332" y2="459.1911" gradientTransform="matrix(-1 0 0 1 1806.0846 0)">
			<stop  offset="0" style="stop-color:#E5E5E5"/>
			<stop  offset="1" style="stop-color:#CFE5E5"/>
		</linearGradient>
		<path class="st13" d="M583.4,439.4v39.7c0-0.1,0.1-0.1,0.1-0.2v7.9c-0.1,0.6-0.1,1.2-0.1,1.9h0.6c1.1-2.6,3.5-4.4,6.3-4.4
			c2.8,0,5.2,1.8,6.3,4.4h0.8h0.1v-15.4h0v-33.9c0-5.4-2.9-9.8-6.5-9.8h-1.1C586.2,429.7,583.4,434.1,583.4,439.4z"/>
		<path class="st14" d="M613.2,425.7h-21.7c4.7,0.4,8.5,6.4,8.5,13.7v49.3h23.3c-5.1-0.9-9.1-6.7-9.1-13.7c0-3.7,1.1-7.2,3.1-9.8
			c2-2.6,4.6-4,7.4-4h25v-2.7c0.2,0,0.4,0,0.7,0c0,0,0,0,0,0c0.2,0,0.3,0,0.5-0.1c0.1,0,0.1,0,0.1,0h0c2.9-0.6,5.1-3.3,5.1-6.5v-1.1
			c0-3.7-2.9-6.7-6.4-6.7v0v-2.6h-0.8h-20v-1.9c0.3,0,0.6,0,0.8-0.1h0c1.8-0.5,3.1-2.4,3.1-4.6v-0.8c0-2.6-1.8-4.8-4-4.8v0v-1.9
			h-15.7V425.7z"/>
		<path class="st15" d="M613.2,425.7v1.5h15.7h8.9c0.1,0,0.2,0,0.2,0h-0.2c1.9,0,3.6-0.7,4.8-1.8c1.3-1.1,2-2.7,2-4.4v-0.7
			c0-1.7-0.8-3.3-2-4.4c-1.2-1.1-2.9-1.8-4.8-1.8h-24.6v1.8h7.7v0h16.9c2.7,0,4.9,2,4.9,4.4v0.7c0,2.4-2.2,4.4-4.9,4.4H618
			c0,0,0.1-0.1,0.1-0.1h-3.9h0c-0.3,0.1-0.6,0.1-1,0.1V425.7z"/>
		
			<linearGradient id="SVGID_10_" gradientUnits="userSpaceOnUse" x1="1163.4703" y1="420.6556" x2="1192.9036" y2="420.6556" gradientTransform="matrix(-1 0 0 1 1806.0846 0)">
			<stop  offset="0" style="stop-color:#E5E5E5"/>
			<stop  offset="1" style="stop-color:#CFE5E5"/>
		</linearGradient>
		<path class="st16" d="M613.2,415.9L613.2,415.9c2.7,0,4.9,2,4.9,4.4v0.7c0,2.1-1.7,3.9-3.8,4.3h3.9c0,0-0.1,0.1-0.1,0.1h19.8
			c2.7,0,4.9-2,4.9-4.4v-0.7c0-2.4-2.2-4.4-4.9-4.4h-16.9v0H613.2z"/>
		
			<linearGradient id="SVGID_11_" gradientUnits="userSpaceOnUse" x1="1045.0586" y1="481.6576" x2="1215.5031" y2="468.4642" gradientTransform="matrix(-1 0 0 1 1806.0846 0)">
			<stop  offset="0" style="stop-color:#E5007D"/>
			<stop  offset="3.052630e-02" style="stop-color:#E1007C"/>
			<stop  offset="0.891" style="stop-color:#790066"/>
		</linearGradient>
		<path class="st17" d="M623.3,488.7c0.5,0.1,0.9,0.1,1.4,0.1H691c-5.2,0-9.5-5.2-9.9-11.9c0-0.4,0-0.7,0-1.1v-1.6
			c0-7.2,4.4-13,9.9-13h35.6v0h-44.5h-32.4h-25c-2.8,0-5.5,1.4-7.4,4c-2,2.6-3.1,6.1-3.1,9.8C614.2,482,618.1,487.8,623.3,488.7z"/>
		<path class="st18" d="M628.9,439.5v1.9h20c0.3,0,0.5,0,0.8-0.1c2.7-0.5,4.8-3.3,4.8-6.6v-0.8c0-2.3-1-4.4-2.5-5.6
			c-0.9-0.7-2-1.1-3.1-1.1h-11.1h-8.9v1.9h6.3v0h13.7c2.2,0,4,2.1,4,4.8v0.8c0,2.6-1.8,4.7-4,4.7h-16.1c0,0,0-0.1,0.1-0.1h-3.2h0
			C629.4,439.5,629.2,439.5,628.9,439.5z"/>
		
			<linearGradient id="SVGID_12_" gradientUnits="userSpaceOnUse" x1="1153.2378" y1="434.3193" x2="1177.1958" y2="434.3193" gradientTransform="matrix(-1 0 0 1 1806.0846 0)">
			<stop  offset="0" style="stop-color:#E5E5E5"/>
			<stop  offset="1" style="stop-color:#CFE5E5"/>
		</linearGradient>
		<path class="st19" d="M628.9,429.1L628.9,429.1c2.2,0,4,2.2,4,4.8v0.8c0,2.3-1.4,4.2-3.1,4.6h3.2c0,0-0.1,0.1-0.1,0.1h16.1
			c2.2,0,4-2.1,4-4.7v-0.8c0-2.6-1.8-4.8-4-4.8h-13.7v0H628.9z"/>
		
			<linearGradient id="SVGID_13_" gradientUnits="userSpaceOnUse" x1="1115.222" y1="420.6555" x2="1168.3241" y2="420.6555" gradientTransform="matrix(-1 0 0 1 1806.0846 0)">
			<stop  offset="0" style="stop-color:#E5007D"/>
			<stop  offset="3.052630e-02" style="stop-color:#E1007C"/>
			<stop  offset="0.891" style="stop-color:#790066"/>
		</linearGradient>
		<path class="st20" d="M655.4,414.1h-17.6c1.9,0,3.6,0.7,4.8,1.8c1.2,1.1,2,2.7,2,4.4v0.7c0,1.7-0.8,3.2-2,4.4
			c-1.2,1.1-2.8,1.8-4.6,1.8h10.9h34.7c4,0,7.3-2.9,7.3-6.6c0-1.8-0.8-3.4-2.1-4.6c-1.4-1.2-3.2-1.9-5.1-1.9H655.4z"/>
		<path class="st15" d="M645.5,362.4v2.1h20.3h9.1c4.4-0.1,7.9-3.3,7.9-7.2v-0.9c0-4-3.6-7.2-8.1-7.2h-29.2v2.1h9.2v0h20
			c3.2,0,5.8,2.3,5.8,5.1v0.9c0,2.8-2.6,5.1-5.8,5.1h-23.5c0,0,0.1-0.1,0.1-0.1h-4.6h0c-0.2,0-0.3,0.1-0.5,0.1c-0.1,0-0.1,0-0.2,0
			C645.8,362.4,645.6,362.4,645.5,362.4z"/>
		
			<linearGradient id="SVGID_14_" gradientUnits="userSpaceOnUse" x1="1125.6582" y1="356.8898" x2="1160.6202" y2="356.8898" gradientTransform="matrix(-1 0 0 1 1806.0846 0)">
			<stop  offset="0" style="stop-color:#E5E5E5"/>
			<stop  offset="1" style="stop-color:#CFE5E5"/>
		</linearGradient>
		<path class="st21" d="M645.5,351.4L645.5,351.4c3.2,0,5.8,2.3,5.8,5.1v0.9c0,2.4-2,4.5-4.6,5h4.6c0,0-0.1,0.1-0.1,0.1h23.5
			c3.2,0,5.8-2.3,5.8-5.1v-0.9c0-2.8-2.6-5.1-5.8-5.1h-20v0H645.5z"/>
		
			<linearGradient id="SVGID_15_" gradientUnits="userSpaceOnUse" x1="1114.0216" y1="435.4312" x2="1180.3842" y2="432.2755" gradientTransform="matrix(-1 0 0 1 1806.0846 0)">
			<stop  offset="0" style="stop-color:#98E1B5"/>
			<stop  offset="0.1594" style="stop-color:#89C6B2"/>
			<stop  offset="0.7202" style="stop-color:#576AA9"/>
			<stop  offset="1" style="stop-color:#A01CA8"/>
		</linearGradient>
		<path class="st22" d="M683.6,427.2h-34.7c1.2,0,2.2,0.4,3.1,1.1c1.5,1.2,2.5,3.3,2.5,5.6v0.8c0,3.4-2.1,6.1-4.8,6.6h32.3h5
			c2.9-0.5,5.1-3.5,5.1-7c0-1.9-0.6-3.7-1.7-5c-1.1-1.3-2.6-2.1-4.2-2.1H683.6z"/>
		<path class="st14" d="M649.7,458.5v2.7h32.4c5,0,9-4.2,9-9.4v-1.1c0-0.3,0-0.6,0-0.9c0-0.3-0.1-0.6-0.1-0.9
			c-0.1-0.3-0.1-0.6-0.2-0.8c-0.1-0.3-0.1-0.5-0.2-0.8c0,0,0-0.1,0-0.1c-0.1-0.2-0.2-0.5-0.3-0.7c-0.1-0.3-0.2-0.5-0.4-0.7
			c-0.1-0.2-0.3-0.5-0.5-0.7c0,0,0,0,0,0c-0.2-0.2-0.3-0.4-0.5-0.6c-0.1-0.2-0.3-0.3-0.5-0.5c-0.1-0.1-0.1-0.1-0.2-0.2
			c-0.2-0.2-0.3-0.3-0.5-0.5c-0.2-0.2-0.4-0.3-0.7-0.5c-0.2-0.1-0.4-0.3-0.6-0.4c0,0-0.1,0-0.1-0.1c-0.5-0.3-1-0.5-1.5-0.6
			c-0.3-0.1-0.5-0.2-0.8-0.2c-0.3-0.1-0.5-0.1-0.8-0.1c0,0,0,0,0,0h-33.5v2.6h10.2v0h22.2c3.5,0,6.4,3,6.4,6.7v1.1
			c0,3.7-2.9,6.7-6.4,6.7h-26c0,0,0.1-0.1,0.1-0.1H651h0c0,0-0.1,0-0.1,0c-0.2,0-0.3,0.1-0.5,0.1c0,0,0,0,0,0
			C650.1,458.5,649.9,458.5,649.7,458.5z"/>
		<path class="st23" d="M649.7,444L649.7,444c3.5,0,6.4,3,6.4,6.7v1.1c0,3.2-2.2,5.9-5.1,6.5h5.2c-0.1,0-0.1,0.1-0.1,0.1h26
			c3.5,0,6.4-3,6.4-6.7v-1.1c0-3.7-2.9-6.7-6.4-6.7h-22.2v0H649.7z"/>
		
			<linearGradient id="SVGID_16_" gradientUnits="userSpaceOnUse" x1="1039.9568" y1="417.113" x2="1210.4133" y2="403.9187" gradientTransform="matrix(-1 0 0 1 1806.0846 0)">
			<stop  offset="0" style="stop-color:#16E5E5"/>
			<stop  offset="1" style="stop-color:#6400A9"/>
		</linearGradient>
		<path class="st24" d="M655.4,395.8v18.3h28.2c1.9,0,3.8,0.7,5.1,1.9c1.4,1.2,2.1,2.9,2.1,4.6c0,3.6-3.3,6.6-7.3,6.6h2.6
			c1.6,0,3.1,0.7,4.2,2.1c1.1,1.3,1.7,3.1,1.7,5c0,3.6-2.2,6.5-5.1,7h27.2v-45.6c0-6.1,3.3-11.3,7.7-12.4h-0.2h-53.3h-2.8
			c-0.6,0-1.2-0.1-1.7-0.2c0,0,0,0,0,0c-0.1,0-0.2,0-0.3-0.1c0,0,0,0,0,0c0,0,0,0,0,0C659,383.9,655.4,389.3,655.4,395.8z"/>
		<path class="st12" d="M659.5,367.3c-1.7,1.8-2.6,4.1-2.6,6.7c0,4.4,2.9,8.1,6.8,9.1c0.1,0,0.2,0,0.3-0.1c0,0,0,0,0,0
			c0.5,0.1,1.1,0.2,1.7,0.2h2.4c0.1,0,0.3,0.1,0.4,0.1h53.3c-4.6,0-8.4-4-8.4-8.9v-1.1c0-4.9,3.8-8.9,8.4-8.9h30v0h-22.6h-54.2
			c-0.1,0-0.1,0-0.2,0h-9.3C663.1,364.6,661.1,365.6,659.5,367.3z"/>
		
			<linearGradient id="SVGID_17_" gradientUnits="userSpaceOnUse" x1="1035.687" y1="362.1817" x2="1206.0789" y2="348.9923" gradientTransform="matrix(-1 0 0 1 1806.0846 0)">
			<stop  offset="0" style="stop-color:#E5007D"/>
			<stop  offset="3.052630e-02" style="stop-color:#E1007C"/>
			<stop  offset="0.891" style="stop-color:#790066"/>
		</linearGradient>
		<path class="st25" d="M729.1,349.3h-54.4c4.5,0,8.1,3.2,8.1,7.2v0.9c0,3.9-3.5,7.1-7.9,7.2h54.2c4.8,0,8.6-3.4,8.6-7.6
			c0-2-0.9-3.9-2.5-5.4C733.6,350.1,731.4,349.3,729.1,349.3z"/>
		<path class="st15" d="M681.1,474.3v1.6c0,0.4,0,0.7,0,1.1l2.9-0.2c0-0.3,0-0.6,0-0.9v-1.6c0-5.1,3.2-9.2,7-9.2h24.4V465h11.2v-3.7
			H691C685.6,461.3,681.1,467.1,681.1,474.3z"/>
		<path class="st15" d="M684,476.8l-2.9,0.2c0.4,6.7,4.7,11.9,9.9,11.9h35.6V485c-0.5,0-1-0.1-1.4-0.2h-5.7c0,0.1,0.1,0.1,0.1,0.2
			H691C687.4,485,684.4,481.4,684,476.8z"/>
		
			<linearGradient id="SVGID_18_" gradientUnits="userSpaceOnUse" x1="1043.0076" y1="455.2166" x2="1213.3932" y2="442.0278" gradientTransform="matrix(-1 0 0 1 1806.0846 0)">
			<stop  offset="0" style="stop-color:#3765E5"/>
			<stop  offset="0.1809" style="stop-color:#3059D5"/>
			<stop  offset="0.9123" style="stop-color:#162998"/>
		</linearGradient>
		<path class="st26" d="M682.1,461.2h44.5h15.8c5.3,0,9.6-4.5,9.6-9.9c0-2.7-1-5.2-2.8-7c-1.8-1.9-4.2-2.9-6.8-2.9h-7.8h-2.7h-0.1
			H717h0h-2.7H687c-0.3,0-0.6,0.1-0.8,0.1h-3c0.3,0,0.5,0.1,0.8,0.1c0.3,0.1,0.5,0.1,0.8,0.2c0.5,0.2,1,0.4,1.5,0.6
			c0,0,0.1,0,0.1,0.1c0.2,0.1,0.4,0.2,0.6,0.4c0.2,0.2,0.4,0.3,0.7,0.5c0.2,0.1,0.3,0.3,0.5,0.5c0.1,0.1,0.2,0.1,0.2,0.2
			c0.2,0.2,0.3,0.3,0.5,0.5c0.2,0.2,0.3,0.4,0.5,0.6c0,0,0,0,0,0c0.2,0.2,0.3,0.5,0.5,0.7c0.1,0.2,0.3,0.5,0.4,0.7
			c0.1,0.2,0.2,0.5,0.3,0.7c0,0,0,0.1,0,0.1c0.1,0.3,0.2,0.5,0.2,0.8c0.1,0.3,0.2,0.5,0.2,0.8c0.1,0.3,0.1,0.6,0.1,0.9
			c0,0.3,0,0.6,0,0.9v1.1C691.1,457,687.1,461.2,682.1,461.2z"/>
		<path class="st27" d="M684,474.3v1.6c0,0.3,0,0.6,0,0.9c0.4,4.6,3.4,8.3,7,8.3h28.6c-0.1-0.1-0.1-0.1-0.1-0.2h5.7
			c-3.2-0.9-5.6-4.6-5.6-9v-1.6c0-5.1,3.2-9.2,7-9.2V465h-11.2v0.1H691C687.2,465,684,469.2,684,474.3z"/>
		<path class="st14" d="M713.4,373.4v1.1c0,4.9,3.8,8.9,8.4,8.9h0.2c0.6-0.2,1.3-0.3,1.9-0.3h1.2c0.7,0,1.3,0.1,1.9,0.3h24.8v-2.6
			c-0.4,0-0.8-0.1-1.2-0.1h-4.8c0,0,0.1,0.1,0.1,0.1h-24.1c-3.3,0-5.9-2.8-5.9-6.3v-1.1c0-3.5,2.7-6.3,5.9-6.3h20.6v0h9.4v-2.5h-30
			C717.1,364.5,713.4,368.5,713.4,373.4z"/>
		<path class="st28" d="M714.2,395.8v45.6h2.7c0,0,0-0.1,0-0.1V427h0v-31.3c0-5,3.1-9,6.8-9h1.2c3.8,0,6.8,4,6.8,9v36.6
			c-0.1-0.1-0.1-0.1-0.1-0.2v7.3c0.1,0.5,0.1,1.1,0.1,1.7c0,0.1,0.1,0.1,0.1,0.2h2.7v-45.6c0-6.1-3.3-11.3-7.7-12.4h-5
			C717.5,384.5,714.2,389.7,714.2,395.8z"/>
		
			<linearGradient id="SVGID_19_" gradientUnits="userSpaceOnUse" x1="1054.3519" y1="373.9049" x2="1090.2997" y2="373.9049" gradientTransform="matrix(-1 0 0 1 1806.0846 0)">
			<stop  offset="0" style="stop-color:#E5E5E5"/>
			<stop  offset="1" style="stop-color:#CFE5E5"/>
		</linearGradient>
		<path class="st29" d="M715.8,373.4v1.1c0,3.5,2.7,6.3,5.9,6.3h24.1c0,0-0.1-0.1-0.1-0.1h4.8c-2.7-0.6-4.7-3.1-4.7-6.2v-1.1
			c0-3.5,2.6-6.3,5.9-6.3v0h-9.4v0h-20.6C718.5,367.1,715.8,369.9,715.8,373.4z"/>
		
			<linearGradient id="SVGID_20_" gradientUnits="userSpaceOnUse" x1="1074.292" y1="414.016" x2="1089.0997" y2="414.016" gradientTransform="matrix(-1 0 0 1 1806.0846 0)">
			<stop  offset="0" style="stop-color:#E5E5E5"/>
			<stop  offset="1" style="stop-color:#CFE5E5"/>
		</linearGradient>
		<path class="st30" d="M717,427v14.2c1.4-3,4.2-5,7.4-5c3.2,0,6,2,7.4,5c0-0.6-0.1-1.1-0.1-1.7v-7.3c0.1,0.1,0.1,0.1,0.1,0.2v-36.6
			c0-5-3.1-9-6.8-9h-1.2c-3.8,0-6.8,4-6.8,9L717,427L717,427z"/>
	</g>
	<g>
		<g class="st31">
			<polygon class="st32" points="700.4,463.8 700.4,463.8 696.7,463.8 681.4,463.8 696.7,463.8 			"/>
			<path class="st32" d="M691.2,452.8h22.9c0.8-0.1,1.6-0.1,2.3,0c14.7,1.2,22.4,18.6,26.7,30.4c1.5,4.2,2.7,9,4.8,13.1
				c0.6-0.5,1.3-0.9,1.9-1.3c1.6-1,3.3-1.5,5.1-1.4h0H780c2.1,0,4.2,0.8,6.1,2.1c7.6,5.3,8.8,16.2,10.3,24.6c0.8,4.3,1.7,9,4,12.9
				h15.9c-0.7,2.3-2.1,4.4-4.2,5.5c-0.9,0.5-1.9,0.7-2.8,0.7c-0.5,0-1-0.1-1.5-0.2h-22.3c-4.1,1-8.2-2.5-10.2-5.8
				c-2.4-4-3.3-8.7-4.1-13.1c-1-5.6-1.9-12.4-4.6-17.8c-1.1,1.2-2.3,2.2-3.9,2.8c-1,0.4-2.1,0.5-3.2,0.4h0h-24h-1.3l0,0
				c-1.9-0.1-3.7-0.9-5.3-1.9c-6.8-4.6-8.4-13.5-10.9-20.7c-2.9-7.9-7.2-18.2-14.2-24.6c-1,1.4-1.7,3.1-1.8,4.9h-25.3
				C677.1,456.9,684.4,452.2,691.2,452.8z"/>
		</g>
		
			<linearGradient id="SVGID_21_" gradientUnits="userSpaceOnUse" x1="-14624.998" y1="461.0026" x2="-14606.0537" y2="461.0026" gradientTransform="matrix(1 0 0 1 15309.2607 0)">
			<stop  offset="0" style="stop-color:#E5E5E5"/>
			<stop  offset="1" style="stop-color:#E5E5E5"/>
		</linearGradient>
		<polygon class="st33" points="684.3,461 699.5,461 703.2,461 703.2,461 699.5,461 		"/>
		
			<linearGradient id="SVGID_22_" gradientUnits="userSpaceOnUse" x1="-14574.5615" y1="481.4369" x2="-14572.6563" y2="481.4369" gradientTransform="matrix(1 0 0 1 15309.2607 0)">
			<stop  offset="0" style="stop-color:#E5E5E5"/>
			<stop  offset="1" style="stop-color:#E5E5E5"/>
		</linearGradient>
		<line class="st34" x1="734.7" y1="481.4" x2="736.6" y2="481.4"/>
		
			<linearGradient id="SVGID_23_" gradientUnits="userSpaceOnUse" x1="-14560.6377" y1="484.8964" x2="-14554.0449" y2="505.952" gradientTransform="matrix(1 0 0 1 15309.2607 0)">
			<stop  offset="0" style="stop-color:#9FE5E5"/>
			<stop  offset="1" style="stop-color:#E599E5"/>
		</linearGradient>
		<path class="st35" d="M738.2,503h24c1.1,0.1,2.2,0,3.2-0.4c1.6-0.6,2.8-1.7,3.9-2.8c-1.4-2.7-3.2-5-5.7-6.8
			c-1.8-1.3-3.9-2.1-5.9-2.1c-1.7-0.1-3.5,0.3-5.1,1.4c-0.7,0.4-1.3,0.9-1.9,1.3c-1.6,1.2-3.2,2.5-4.6,4c-1.9,1.9-3.4,4.1-6,5.1
			C739.5,502.8,738.9,502.9,738.2,503z"/>
		
			<linearGradient id="SVGID_24_" gradientUnits="userSpaceOnUse" x1="-14572.3252" y1="502.9991" x2="-14571.0439" y2="502.9991" gradientTransform="matrix(1 0 0 1 15309.2607 0)">
			<stop  offset="0" style="stop-color:#E5E5E5"/>
			<stop  offset="1" style="stop-color:#E5E5E5"/>
		</linearGradient>
		<path class="st36" d="M738.2,503h-1.3C737.4,503,737.8,503,738.2,503z"/>
		
			<linearGradient id="SVGID_25_" gradientUnits="userSpaceOnUse" x1="-14592.3232" y1="449.9957" x2="-14589.9824" y2="449.9957" gradientTransform="matrix(1 0 0 1 15309.2607 0)">
			<stop  offset="0" style="stop-color:#E5E5E5"/>
			<stop  offset="1" style="stop-color:#E5E5E5"/>
		</linearGradient>
		<path class="st37" d="M716.9,450h2.3C718.5,450,717.7,450,716.9,450z"/>
		
			<linearGradient id="SVGID_26_" gradientUnits="userSpaceOnUse" x1="-14629.9072" y1="455.3416" x2="-14602.7832" y2="455.3416" gradientTransform="matrix(1 0 0 1 15309.2607 0)">
			<stop  offset="0" style="stop-color:#9FE5E5"/>
			<stop  offset="1" style="stop-color:#E599E5"/>
		</linearGradient>
		<path class="st38" d="M679.4,460.7h25.3c0.2-1.8,0.8-3.5,1.8-4.9c-3.5-3.2-7.6-5.4-12.5-5.8C687.3,449.4,679.9,454.1,679.4,460.7z
			"/>
		
			<linearGradient id="SVGID_27_" gradientUnits="userSpaceOnUse" x1="-14549.915" y1="467.8148" x2="-14509.3867" y2="538.8464" gradientTransform="matrix(1 0 0 1 15309.2607 0)">
			<stop  offset="0" style="stop-color:#E5E5E5"/>
			<stop  offset="1" style="stop-color:#E5E5E5"/>
		</linearGradient>
		<path class="st39" d="M757.7,490.8c2,0.1,4.1,0.9,5.9,2.1c2.5,1.7,4.3,4.1,5.7,6.8c2.8,5.4,3.6,12.2,4.6,17.8
			c0.8,4.4,1.7,9.1,4.1,13.1c2,3.3,6.1,6.8,10.2,5.8c0.4-0.1,0.9-0.3,1.3-0.5c2.1-1.1,3.5-3.2,4.2-5.5h9.4c-2.3-3.9-3.3-8.5-4-12.9
			c-1.5-8.4-2.7-19.4-10.3-24.6c-1.9-1.3-4-2.1-6.1-2.1H757.7z"/>
		
			<linearGradient id="SVGID_28_" gradientUnits="userSpaceOnUse" x1="-14551.9238" y1="490.7988" x2="-14551.5205" y2="490.7988" gradientTransform="matrix(1 0 0 1 15309.2607 0)">
			<stop  offset="0" style="stop-color:#E5E5E5"/>
			<stop  offset="1" style="stop-color:#E5E5E5"/>
		</linearGradient>
		<line class="st40" x1="757.3" y1="490.8" x2="757.7" y2="490.8"/>
		
			<linearGradient id="SVGID_29_" gradientUnits="userSpaceOnUse" x1="-14572.7275" y1="502.9871" x2="-14572.3242" y2="502.9871" gradientTransform="matrix(1 0 0 1 15309.2607 0)">
			<stop  offset="0" style="stop-color:#E5E5E5"/>
			<stop  offset="1" style="stop-color:#E5E5E5"/>
		</linearGradient>
		<line class="st41" x1="736.5" y1="503" x2="736.9" y2="503"/>
		
			<linearGradient id="SVGID_30_" gradientUnits="userSpaceOnUse" x1="-14547.0342" y1="502.9871" x2="-14545.8574" y2="502.9871" gradientTransform="matrix(1 0 0 1 15309.2607 0)">
			<stop  offset="0" style="stop-color:#E5E5E5"/>
			<stop  offset="1" style="stop-color:#E5E5E5"/>
		</linearGradient>
		<line class="st42" x1="762.2" y1="503" x2="763.4" y2="503"/>
		
			<linearGradient id="SVGID_31_" gradientUnits="userSpaceOnUse" x1="-14510.7793" y1="521.6873" x2="-14502.6426" y2="539.8871" gradientTransform="matrix(1 0 0 1 15309.2607 0)">
			<stop  offset="0" style="stop-color:#9FE5E5"/>
			<stop  offset="1" style="stop-color:#E599E5"/>
		</linearGradient>
		<path class="st43" d="M788.3,536.4h22.3c0.5,0.1,1,0.2,1.5,0.2c0.9,0,1.9-0.2,2.8-0.7c2.1-1.1,3.5-3.2,4.2-5.5h-25.3
			c-0.7,2.3-2.1,4.4-4.2,5.5C789.2,536.1,788.8,536.3,788.3,536.4z"/>
		
			<linearGradient id="SVGID_32_" gradientUnits="userSpaceOnUse" x1="-14522.1143" y1="536.4058" x2="-14520.9512" y2="536.4058" gradientTransform="matrix(1 0 0 1 15309.2607 0)">
			<stop  offset="0" style="stop-color:#E5E5E5"/>
			<stop  offset="1" style="stop-color:#E5E5E5"/>
		</linearGradient>
		<line class="st44" x1="787.1" y1="536.4" x2="788.3" y2="536.4"/>
		
			<linearGradient id="SVGID_33_" gradientUnits="userSpaceOnUse" x1="-14498.6641" y1="536.4058" x2="-14496.8311" y2="536.4058" gradientTransform="matrix(1 0 0 1 15309.2607 0)">
			<stop  offset="0" style="stop-color:#E5E5E5"/>
			<stop  offset="1" style="stop-color:#E5E5E5"/>
		</linearGradient>
		<line class="st45" x1="810.6" y1="536.4" x2="812.4" y2="536.4"/>
		
			<linearGradient id="SVGID_34_" gradientUnits="userSpaceOnUse" x1="-14598.6592" y1="445.629" x2="-14556.6963" y2="528.9165" gradientTransform="matrix(1 0 0 1 15309.2607 0)">
			<stop  offset="0" style="stop-color:#E5E5E5"/>
			<stop  offset="1" style="stop-color:#E5E5E5"/>
		</linearGradient>
		<path class="st46" d="M694,450c4.9,0.4,9,2.6,12.5,5.8c7,6.4,11.4,16.7,14.2,24.6c2.6,7.1,4.2,16,10.9,20.7
			c1.6,1.1,3.4,1.8,5.3,1.9h1.3c0.7-0.1,1.3-0.2,1.9-0.4c2.6-1,4.1-3.2,6-5.1c1.4-1.4,3-2.8,4.6-4c-2.1-4.2-3.2-9-4.8-13.1
			c-4.3-11.8-12-29.1-26.7-30.4H694z"/>
		
			<linearGradient id="SVGID_35_" gradientUnits="userSpaceOnUse" x1="-14616.4688" y1="450.0198" x2="-14615.2656" y2="450.0198" gradientTransform="matrix(1 0 0 1 15309.2607 0)">
			<stop  offset="0" style="stop-color:#E5E5E5"/>
			<stop  offset="1" style="stop-color:#E5E5E5"/>
		</linearGradient>
		<line class="st47" x1="692.8" y1="450" x2="694" y2="450"/>
	</g>
</g>
<g>
	<path class="st48" d="M590.8,433.6c-1.7-2.7-3.3-5.4-4.8-8.2l0,0c5.2-1.9,10.4-3.9,15.5-6c8.1-3.3,16.6-6.3,25.5-6.5
		c6.3-0.1,12.8,1.4,18,4.7c-7.2,11.3-27.3,12.7-38.3,18.6c-3.5,1.8-6.8,3.9-10.1,6C594.6,439.5,592.6,436.6,590.8,433.6z"/>
	<path class="st49" d="M497.4,428.5c1.3-3.6,3.8-7.1,4.5-10.8c0.2-1.3,0.2-2.4,0.1-3.4c-0.2-1.3-0.6-2.5-1.3-3.7
		c-0.4-0.8-1-1.7-1.5-2.6c-8.1-12.7-5.7-27.9-5.6-42.2c0-0.1,0-0.2,0-0.3c4.2,2.1,7.9,5.3,11.1,9.1c5.4,6.5,9.1,14.3,13.2,21.6
		c11.5,20.4,29,31.9,53.2,28.1c11.7-1.8,23.2-5.7,35.1-5.8c0.2,2,7.4,17.4,5.6,18.3c-13.3,6.2-27,11.7-40.9,16.7
		c-8.1,2.9-16.5,5.6-25.2,6c-13,0.5-20.5-5.1-29.5-13.3c-2.7-2.4-5.4-4.7-8.1-6.9c-3.7-3-7.5-5.9-11.3-8.9c0.1-0.4,0.3-0.9,0.4-1.3
		C497.3,428.8,497.3,428.7,497.4,428.5z"/>
	<path class="st50" d="M436,541c-0.9-3.5-3.5-29.9-4.1-32.2c4.7-0.9,9.1-2.4,12.9-5.2c2.1-1.6,4-3.5,6.4-4.6
		c7.2-3.3,16.4-2,24.1-2.6c7.8-0.7,15.6-1.9,23.2-3.6c0.6,1.5,1.2,2.9,1.7,4.4c0.1,0.4,0.3,0.8,0.4,1.3c-0.2,5.1-0.5,23.2-1,30.5
		L436,541z"/>
	<path class="st51" d="M495.2,482.2c2.9-10,0.2-18.6-0.7-28.7c-0.4-4.7-0.3-9.4,0.3-14c0.4-3.1,1.1-6.2,2-9.3
		c3.8,3,7.5,5.9,11.3,8.9c-0.2,6.4,0.7,12.8,1.6,19.2c1,7.9,1.9,16,0,23.7c-0.9,3.9-2.6,7.6-5.1,10.8l-0.9-1.4
		c-0.9,0.2-1.9,0.5-2.8,0.7c-0.8,0.2-1.6,0.4-2.4,0.6c-0.5-1.3-1-2.6-1.5-4c0.2,0,0.3,0,0.5,0c-0.8-2.3-1.6-4.5-2.7-6.6
		C495,482.2,495.1,482.2,495.2,482.2z"/>
	<path class="st52" d="M414.7,544.5c-0.2-2-1.1-31.1-1.2-33.1c6.1-1,12.5-1.3,18.4-2.5c0.6,2.2,3.1,28.7,4.1,32.2L414.7,544.5z"/>
	<path class="st51" d="M503.7,491.5l0.9,1.4c-1.1,1.5-2.4,2.8-3.8,3.9c0.1-1.8,0.1-3.3,0.2-4.6C501.9,492,502.8,491.8,503.7,491.5z"
		/>
	<path class="st53" d="M502,414.3c0.1,1,0.1,2.1-0.1,3.4c-0.7,3.7-3.1,7.2-4.5,10.8c-0.5,0.4-1,0.7-1.5,1.1c0,0,0,0,0,0
		c-2,1.2-4.2,2.1-6.5,2.4c-6.2,0.9-12.4-0.7-18.6-1.5c-5.4-0.7-10.8-0.6-16.2,0c0-1.4-0.1-2.8-0.3-4.2c-0.7-4.9-2.5-9.8-1.6-14.7
		c0.2-1.2,0.6-2.4,1.1-3.5c1.7-4.2,4.8-8,6.1-12.3c2.7-9.1-2.7-18.5-8.7-25.9c-0.4-0.5-0.9-1.1-1.3-1.6c4.2,0.5,8.5-0.1,12.3-1.7
		c2.9-1.2,5.6-3.1,7.9-5.3c0.6,0.1,1.1,0.3,1.7,0.4c1.6,6.5,4.2,12.8,6.8,19c2.9,6.9,5.8,13.9,10.3,19.9c3.1,4.2,7.1,7.8,11.8,10.2
		C501.3,411.8,501.8,413,502,414.3z"/>
	<path class="st51" d="M500.9,492.2c0,1.3-0.1,2.9-0.2,4.6c-0.2,0.1-0.3,0.3-0.5,0.4c-0.5-1.5-1.1-3-1.7-4.4
		C499.3,492.6,500.2,492.4,500.9,492.2z"/>
	<path class="st49" d="M474,362c1.4,0.2,2.9,0.4,4.4,0.6c5.3,0.6,10.6,1.1,15.2,3.2c-0.2,14.3-2.5,29.5,5.6,42.2
		c0.6,0.9,1.1,1.8,1.5,2.6c-4.6-2.3-8.6-6-11.8-10.2c-4.5-6-7.4-13-10.3-19.9c-2.6-6.2-5.2-12.5-6.8-19
		C472.5,361.8,473.2,361.9,474,362z"/>
	<path class="st50" d="M497,488.8c-18.6-0.4-37.2-0.1-55.8,0.9c-0.8,0-1.7,0.1-2.5,0.1c0-2.2,0.1-4.4,0.2-6.5
		c1.4-0.1,2.7-0.2,4.1-0.2c17.3-0.9,34.6-1.2,51.9-0.9c1.1,2.1,1.9,4.3,2.7,6.6C497.3,488.8,497.2,488.8,497,488.8z"/>
	<path class="st54" d="M497.4,428.5c-0.1,0.2-0.1,0.3-0.2,0.5c-0.1,0.4-0.3,0.9-0.4,1.3c-0.3-0.2-0.6-0.5-0.9-0.7c0,0,0,0,0,0
		C496.4,429.3,496.9,428.9,497.4,428.5z"/>
	<path class="st52" d="M438.5,499.1c0-0.9,0-1.8,0.1-2.7c0.1-2.2,0.1-4.3,0.2-6.5c0.9-0.1,1.7-0.1,2.5-0.1c18.6-1,37.2-1.3,55.8-0.9
		c0.5,1.4,1,2.7,1.5,4c-7.6,1.8-15.4,3-23.2,3.6c-7.8,0.7-16.9-0.7-24.1,2.6c-2.4,1.1-4.3,3-6.4,4.6c-3.8,2.8-8.3,4.3-12.9,5.2
		c-0.9-3.7-1.4-5.6-1.4-5.6l-7-4.5C428.5,499.7,433.5,499.8,438.5,499.1z"/>
	<path class="st54" d="M495.9,429.6c0.3,0.2,0.6,0.5,0.9,0.7c-1,3-1.6,6.1-2,9.3c-11.8,8.1-29.4,7.1-40.2,16.3l-1.7-2.8
		c0.6-3.3,0.2-6.6-0.7-9.8c1.6-4,2.5-8.3,2.5-12.7c5.4-0.7,10.8-0.7,16.2,0c6.2,0.8,12.4,2.5,18.6,1.5
		C491.7,431.6,494,430.8,495.9,429.6z"/>
	<path class="st53" d="M494.5,453.5c0.9,10.1,3.6,18.7,0.7,28.7c-0.1,0-0.3,0-0.4,0c-17.3-0.3-34.6,0-51.9,0.9
		c0.2-1.1,0.5-2.3,0.7-3.4c1.7-8,3.3-15.9,8.8-21.9c0.7-0.7,1.4-1.4,2.1-2c10.8-9.2,28.5-8.2,40.2-16.3
		C494.2,444.2,494.2,448.9,494.5,453.5z"/>
	<path class="st55" d="M437.4,270.1c0.5-0.4,1-0.8,1.5-1.2c5.4-3.9,12-5.2,18.2-4.9c7,0.4,13.7,2.8,19.4,6.9c0,0,0,0,0,0
		c3.9,4.9,7.4,10.2,9.1,16.3c1.6,5.6,1.1,12.1-1.7,17.1c0.6-3,0.2-5.8-0.9-8.3c-2.7-6.2-9.6-10.7-15.9-11.6
		c-11.9-1.8-20.6,7.9-25.6,18.3h0c-3.2-1.7-9.9-4-12.1-0.8c-0.6,0.9-0.8,1.8-0.7,2.6l-1.2,0.2c-0.3-1.4-0.5-2.9-0.7-4.4
		c-0.5-4.8-0.1-9.9,1.2-14.7C429.6,279.6,432.7,274,437.4,270.1L437.4,270.1z"/>
	<path class="st55" d="M482.9,296.1c1.1,2.5,1.5,5.3,0.9,8.3c-0.7,1.2-1.5,2.2-2.4,3.2C482.1,303.8,482.6,300,482.9,296.1z"/>
	<path class="st48" d="M456.7,342l0,0.2c-7-1.7-11.4-6.9-14.1-13.4c-2.8-6.5-2.6-14.3-9.4-18v0c-1.2-2.1-4.3-3.9-4.6-6.3
		c-0.1-0.8,0.1-1.6,0.7-2.6c2.2-3.2,8.9-0.9,12.1,0.8h0c5-10.4,13.8-20,25.6-18.3c6.3,0.9,13.2,5.4,15.9,11.6
		c-0.2,3.8-0.7,7.7-1.5,11.5c0,0,0,0,0,0c-1.3,6.4-3.4,12.6-6.4,18.4c-3.5,6.7-9,15.7-17.2,16C457.4,342.1,457.1,342,456.7,342z"/>
	<path class="st48" d="M439.1,353.5c-1.2-2.2-2.2-4.5-2.7-6.7c-1-4.2-1.7-8.6-2.2-12.9c0,0,0,0,0,0s0,0,0,0c0-1.1,0.1-2.1,0.1-3.2
		c2.9,3.8,6.1,7.2,9.8,10.4c2.5,2.1,5.1,4.1,8.2,5.2c1,0.4,2,0.6,3.1,0.7c-0.1,0.5-0.1,1,0,1.6c0.4,3.4,3.1,6.7,5.7,8.7
		c2.7,2.1,5.8,3.3,9.1,4.1c-2.2,2.2-4.9,4.1-7.9,5.3c-3.9,1.6-8.2,2.2-12.3,1.7c-2.1-2.5-4.2-5-6.1-7.6
		C442.3,358.5,440.5,356,439.1,353.5z"/>
	<path class="st56" d="M433.9,330c0.1,1.3,0.2,2.6,0.4,3.9c0,0,0,0,0,0s0,0,0,0c0.5,4.3,1.2,8.6,2.2,12.9c0.5,2.2,1.5,4.5,2.7,6.7
		c1.4,2.6,3.1,5,4.7,7.1c1.9,2.6,4,5.1,6.1,7.6c0.4,0.5,0.9,1.1,1.3,1.6c5.9,7.4,11.3,16.8,8.7,25.9c-1.3,4.4-4.3,8.1-6.1,12.3
		c-2.9-2.1-5.9-4.2-8.8-6.2l-3-0.6c1.6-4.9,3.6-9.8,4-14.9c0.5-6.6-1.8-13.2-5.2-18.9c-2.6-4.4-5.7-8.2-8.8-12
		c-0.1-0.1-0.1-0.2-0.2-0.3c-5.1-6.3-10.2-12.4-13.4-20.4c-6.1-15.3-9.6-42.4,9.6-49.1c-1.3,4.8-1.7,9.9-1.2,14.7
		c0.2,1.5,0.4,2.9,0.7,4.4c1.3,6.5,3.9,12.4,7.1,18.1c-0.1,1.8-0.1,3.5-0.1,4.9c0,1,0,1.9,0,2.9C434.2,330.4,434,330.2,433.9,330z"
		/>
	<path class="st57" d="M434.5,322.8c0.1-3.9,0.2-8.3-1-11.3c-0.1-0.2-0.2-0.4-0.4-0.7c6.7,3.7,6.6,11.4,9.4,18
		c2.7,6.4,7.1,11.7,14.1,13.4c0,0,0.1,0,0.1,0c-0.2,1.7-1.2,3-1.5,4.7c-1-0.1-2.1-0.4-3.1-0.7c-3.1-1.1-5.7-3.1-8.2-5.2
		c-3.6-3.1-6.9-6.6-9.8-10.4c0-1,0-1.9,0-2.9C434.4,326.3,434.5,324.6,434.5,322.8z"/>
	<path class="st56" d="M454.6,430.5c0,4.3-0.9,8.7-2.5,12.7c-1.1-3.9-3.1-7.7-4.9-11.3v0c-0.9-1.6-1.7-3.2-2.4-4.8
		c-2.3-4.7-4.5-9.7-4.7-14.9c-0.1-3.7,0.8-7.4,1.9-10.9l3,0.6c2.9,2.1,5.8,4.2,8.8,6.2c-0.5,1.1-0.9,2.3-1.1,3.5
		c-0.9,4.9,0.9,9.8,1.6,14.7C454.5,427.7,454.6,429.1,454.6,430.5z"/>
	<path class="st54" d="M452.9,453l1.7,2.8c-0.7,0.6-1.4,1.3-2.1,2c-5.5,5.9-7.1,13.9-8.8,21.9l-1.6-0.2c-0.7-1.2-1.8-2.2-3.1-3.2
		c0.1-5.8,0.3-11.5,0.5-17.3c5.7-3.9,10.1-9.6,12.7-15.9C453.1,446.4,453.5,449.7,452.9,453z"/>
	<path class="st55" d="M431.6,355.6c0.1,0,0.2,0,0.3,0c3.1,3.8,6.2,7.7,8.8,12c3.4,5.7,5.7,12.3,5.2,18.9c-0.4,5.1-2.4,10-4,14.9
		c-1.1,3.6-2.1,7.2-1.9,10.9c0.2,5.2,2.4,10.2,4.7,14.9c0.8,1.5,1.6,3.1,2.4,4.8v0c1.9,3.6,3.8,7.4,4.9,11.3
		c-2.6,6.4-7,12-12.7,15.9c-1.4,0.9-2.8,1.7-4.2,2.4c-4.9,2.4-11.6,3.1-15.8,0.1c-0.9-0.6-1.6-1.4-2.3-2.3c-1.5-2.4-2.4-5.2-2.8-8.1
		c-0.1-0.6-0.1-1.1-0.2-1.7c-0.3-5,0.5-10.4,1.7-15.5c1-4.4,2.2-8.5,3.1-12c2.8-10.7,4-23.5-3.8-31.5c-3.6-3.6-8.5-5.6-13-8.1
		c-4.4-2.5-8.8-6.2-9.6-11.2c-1.6-9.6,10-16.7,11.1-26.4c0.1-0.5,0.1-1.1,0.1-1.7c3.4,3.7,7.1,7,11.6,8.9
		C420.6,354.2,426.2,355.9,431.6,355.6z"/>
	<path class="st53" d="M442.1,479.5l1.6,0.2c-0.2,1.2-0.5,2.3-0.7,3.4c-1.4,0.1-2.7,0.1-4.1,0.2c0.1-2.3,0.1-4.7,0.2-7
		C440.3,477.3,441.4,478.3,442.1,479.5z"/>
	<path class="st51" d="M412,422.4c0.7-7.2,1-14.6-2.3-20.8c-3.2-6-9-10.1-14-14.8c-0.1-0.1-0.1-0.1-0.2-0.2c-4-3.8-8.6-9.3-8.5-15.1
		c0.1-5.6,2-11.8,2.7-17.5c1.3-9.8,0.8-19.4-1.6-28.8c2.7,3.2,5.5,6.3,8.3,9.5c2.5,2.7,4.8,5.7,7.4,8.5v0c0,0.6,0,1.1-0.1,1.7
		c-1.1,9.7-12.7,16.8-11.1,26.4c0.8,5,5.2,8.7,9.6,11.2c4.5,2.5,9.4,4.5,13,8.1c7.8,7.9,6.7,20.7,3.8,31.5c-0.9,3.4-2.1,7.6-3.1,12
		c-1.2,5.1-2,10.5-1.7,15.5c0,0.6,0.1,1.1,0.2,1.7c0.4,3,1.2,5.8,2.8,8.1c0.6,1,1.4,1.7,2.3,2.3c4.2,2.9,10.9,2.2,15.8-0.1
		c1.5-0.7,2.9-1.5,4.2-2.4c-0.1,5.8-0.3,11.5-0.5,17.3c-2.2-1.6-5-2.7-7.3-3.3c-2.9-0.7-6-0.9-8.8-1.8c-7.8-2.5-12.9-10.3-14.4-18.3
		C406.4,442.3,409,432.4,412,422.4z"/>
	<path class="st49" d="M391.5,399.2c0.9-3.1,1.9-6.2,3-9.2c0.3-1,0.7-1.9,1-2.9l0.3-0.3c5,4.7,10.8,8.8,14,14.8
		c3.3,6.2,3,13.7,2.3,20.8c-3,10-5.6,19.9-3.6,30.6c1.5,7.9,6.6,15.7,14.4,18.3c2.9,0.9,5.9,1.1,8.8,1.8c2.3,0.6,5.1,1.7,7.3,3.3
		c-0.1,2.3-0.1,4.7-0.2,7c-0.1,2.2-0.1,4.4-0.2,6.5c-0.1,2.2-0.1,4.3-0.2,6.5c0,0.9,0,1.8-0.1,2.7c-4.9,0.8-10,0.6-14.9-0.3
		l-8.8-5.6c-0.2,0.9-0.4,1.8-0.6,2.8c-2.7-1.2-5.4-2.6-7.8-4.4c-13.6-9.8-20.4-26.8-21.4-43.3C383.9,431.9,386.8,415,391.5,399.2z"
		/>
	<path class="st55" d="M433.2,310.8L433.2,310.8c0.1,0.2,0.3,0.5,0.4,0.7c1.1,3,1.1,7.4,1,11.3c-3.2-5.6-5.8-11.6-7.1-18.1l1.2-0.2
		C428.9,306.9,431.9,308.7,433.2,310.8z"/>
	<path class="st55" d="M423.3,271.4c4.5-1.7,9.4-2.1,14.1-1.3c-4.6,3.9-7.7,9.5-9.4,15.6c-19.2,6.7-15.7,33.8-9.6,49.1
		c3.2,8,8.3,14.2,13.4,20.4c0,0.1,0,0.2-0.1,0.3c-5.4,0.4-11-1.4-16.2-3.5c-4.5-1.9-8.2-5.2-11.6-8.9v0c0-4.3-2-8.4-3.3-12.5
		c-4.6-14.1-2.3-29.8,5.4-42.5C410.1,281.2,415.3,274.4,423.3,271.4z"/>
	<path class="st52" d="M430.6,503.3c0,0,0.4,1.9,1.4,5.6c-5.9,1.2-12.3,1.5-18.4,2.5c-0.3-5.3-0.1-10.5,0.7-15.4
		c2.5,1.1,5.2,1.9,7.8,2.5c0.5,0.1,1,0.2,1.5,0.3L430.6,503.3z"/>
	<path class="st49" d="M414.7,493.2l8.8,5.6c-0.5-0.1-1-0.2-1.5-0.3c-2.7-0.6-5.3-1.5-7.8-2.5C414.3,495,414.5,494.1,414.7,493.2z"
		/>
	<path class="st49" d="M328.8,269.8c4.7-1.6,9.1-3.8,13.3-6.5c5,7.7,10.5,14.8,15.7,22.4c9.4,13.7,19.6,26.8,30.4,39.5
		c2.5,9.4,2.9,19,1.6,28.8c-0.7,5.7-2.6,11.9-2.7,17.5c-0.1,5.8,4.6,11.4,8.5,15.1c0.1,0.1,0.1,0.1,0.2,0.2l-0.3,0.3
		c-0.3,1-0.7,1.9-1,2.9c-4.7-8-9.3-16-13.9-24l-0.5,0.2c-0.8-1.8-1.6-3.6-2.6-5.4c-5.7-10-11.6-19.9-17.4-29.9
		c-11.6-19.9-23.2-39.9-34.8-59.8C326.5,270.7,327.6,270.3,328.8,269.8z"/>
	<path class="st49" d="M394.4,389.9c-1.1,3-2,6.1-3,9.2c-0.4-4.6-1.4-9.1-2.7-13.4c-1.5-4.8-3.5-9.4-6-13.8
		c-1.1-1.9-1.9-3.9-2.7-5.8l0.5-0.2C385.1,373.9,389.8,381.9,394.4,389.9z"/>
	<path class="st48" d="M341.5,262.6c0.2,0.3,0.3,0.5,0.5,0.8c-4.1,2.7-8.6,4.9-13.3,6.5c-2.1-2.6-4.6-4.8-7.5-6.5
		c-0.9-0.5-1.7-1-2.6-1.4c-1-0.5-2-0.9-2.8-1.7c-0.7-0.8-1-2.1-0.3-2.9c1.4-1.6,5.4,1,6-1c0.5-1.7-4.8-3.2-5.9-3.6
		c-2.8-1-6-2.4-6.7-5.3c-0.7-2.8,1.5-5.7,4.3-6.6c2.7-1,5.8-0.4,8.5,0.5c5.4,1.9,7.6,2.9,10.8,7.5
		C335.7,253.3,338.6,258,341.5,262.6z"/>
	<g>
		<g>
			<path class="st58" d="M474.5,307.9c0.3,0.8,1.2,1.2,2,0.9c0.8-0.3,1.2-1.2,0.9-1.9c-0.3-0.8-1.2-1.2-2-0.9
				C474.6,306.2,474.2,307.1,474.5,307.9z"/>
			<path class="st58" d="M455.3,304.8c-0.1,0.8,0.5,1.6,1.4,1.7c0.8,0.1,1.6-0.5,1.7-1.3c0.1-0.8-0.5-1.6-1.4-1.7
				C456.1,303.4,455.4,304,455.3,304.8z"/>
		</g>
		<path class="st59" d="M482,300c-3.2-1.8-7.2-2.1-10.7-1"/>
		<path class="st59" d="M462.3,297.2c-3.4-2-7.8-2.3-11.4-0.8"/>
		<path class="st59" d="M468,304.1c-0.7,3.9-0.5,8,0.6,11.8c0.2,0.9,0.5,1.9,0.1,2.7c-0.7,1.2-2.4,1.1-3.7,1"/>
		<g id="XMLID_1_">
			<g>
				<path class="st50" d="M468.8,328.3c-5.3,1-10.9,0.5-16-1.5c0.5,1.3,1.2,2.4,2.3,3.6c2.1,2.3,5.2,3.5,8.1,2.7
					C465.5,332.5,467.7,330.7,468.8,328.3z"/>
				<path class="st10" d="M469.5,326.3c-6,0.8-12.2-0.5-17.4-3.9c0.1,1.7,0.3,3.1,0.8,4.4c5.1,1.9,10.7,2.4,16,1.5
					C469.1,327.7,469.4,327,469.5,326.3z"/>
			</g>
		</g>
	</g>
</g>
<g>
	<g>
		<circle class="st60" cx="549.1" cy="256.3" r="11.7"/>
		
			<ellipse transform="matrix(0.3827 -0.9239 0.9239 0.3827 69.2603 687.5081)" class="st61" cx="549.1" cy="291.9" rx="11.7" ry="11.7"/>
		<circle class="st62" cx="549.1" cy="327.6" r="11.7"/>
	</g>
	<g>
		<path class="st10" d="M549.2,331.8h3c1.3,0,2.3-1,2.3-2.3v-2.9c0-1.3-1-2.3-2.3-2.3h-3c-1.3,0-2.3,1-2.3,2.3v2.9
			C546.9,330.7,547.9,331.8,549.2,331.8z"/>
		
			<rect x="544.2" y="326.1" transform="matrix(-1 -4.517554e-11 4.517554e-11 -1 1094.5513 655.9171)" class="st10" width="6.2" height="3.7"/>
		
			<rect x="543.1" y="325" transform="matrix(-1 -4.312074e-11 4.312074e-11 -1 1088.3505 655.9171)" class="st10" width="2.1" height="5.9"/>
	</g>
	<path class="st10" d="M546,293.6c-0.8-0.5-1.6-1.2-2.1-2c-0.5-0.9-0.5-2,0.1-2.8c0.5-0.7,1.7-0.9,2.4-0.3c0.9,0.8,0.3,2.1,0.9,3
		c0.8,1.2,2.5,2,3.9,2c0.8,0,1.6-0.5,2.4-0.4c1.4,0.1,1.7,1.7,0.9,2.6C552.5,297.9,547.7,294.8,546,293.6z"/>
	<g>
		<path class="st10" d="M548.7,258.8h0.9c1.1,0,2-0.9,2-2v-5.3c0-1.1-0.9-2-2-2h-0.9c-1.1,0-2,0.9-2,2v5.3
			C546.7,257.9,547.6,258.8,548.7,258.8z"/>
		
			<rect x="548.6" y="253.1" transform="matrix(-1 -4.151180e-11 4.151180e-11 -1 1098.3378 516.0127)" class="st10" width="1.2" height="9.8"/>
		<path class="st10" d="M545.9,262.9h6.5c0.5,0,0.9-0.4,0.9-0.9l0,0c0-0.5-0.4-0.9-0.9-0.9h-6.5c-0.5,0-0.9,0.4-0.9,0.9l0,0
			C545,262.5,545.4,262.9,545.9,262.9z"/>
	</g>
</g>
<g>
	<g>
		<defs>
			
				<rect id="SVGID_36_" x="573.8" y="271.3" transform="matrix(-1 -1.224647e-16 1.224647e-16 -1 1203.7269 596.4775)" width="56" height="53.8"/>
		</defs>
		<clipPath id="SVGID_37_">
			<use xlink:href="#SVGID_36_"  style="overflow:visible;"/>
		</clipPath>
		
			<rect x="573.8" y="271.3" transform="matrix(-1 -1.224647e-16 1.224647e-16 -1 1203.7269 596.4775)" class="st63" width="56" height="53.8"/>
		<g class="st64">
			<polygon class="st65" points="637.8,259.5 641.9,263.4 566,336.4 561.8,332.4 			"/>
			<polygon class="st65" points="640.7,331.2 636.5,335.2 563.1,264.6 567.2,260.6 			"/>
		</g>
		<polygon class="st66" points="566.7,302.1 597.5,302.1 597.5,331.8 606.2,331.8 606.2,302.1 637.1,302.1 637.1,293.8 606.2,293.8 
			606.2,264.1 597.5,264.1 597.5,293.8 566.7,293.8 		"/>
	</g>
	<g id="USA_5_">
		<g>
			<g>
				<defs>
					<rect id="SVGID_38_" x="573.8" y="209.2" width="56" height="53.3"/>
				</defs>
				<clipPath id="SVGID_39_">
					<use xlink:href="#SVGID_38_"  style="overflow:visible;"/>
				</clipPath>
				<rect x="573.8" y="239.4" class="st67" width="56" height="2.5"/>
				<rect x="573.8" y="236.9" class="st68" width="56" height="2.5"/>
				<rect x="573.8" y="234.4" class="st67" width="56" height="2.5"/>
				<rect x="573.8" y="231.9" class="st68" width="56" height="2.5"/>
				<rect x="573.8" y="229.4" class="st67" width="56" height="2.5"/>
				<rect x="573.8" y="226.8" class="st68" width="56" height="2.5"/>
				<rect x="573.7" y="254.5" class="st67" width="56" height="2.5"/>
				<rect x="573.7" y="252" class="st68" width="56" height="2.5"/>
				<rect x="573.7" y="259.5" class="st67" width="56" height="2.5"/>
				<rect x="573.7" y="257" class="st68" width="56" height="2.5"/>
				<rect x="573.7" y="249.5" class="st67" width="56" height="2.5"/>
				<rect x="573.7" y="247" class="st68" width="56" height="2.5"/>
				<rect x="573.7" y="244.4" class="st67" width="56" height="2.5"/>
				<rect x="573.7" y="241.9" class="st68" width="56" height="2.5"/>
				<rect x="573.8" y="224.3" class="st67" width="56" height="2.5"/>
				<rect x="573.8" y="221.8" class="st68" width="56" height="2.5"/>
				<rect x="573.8" y="219.3" class="st67" width="56" height="2.5"/>
				<rect x="573.8" y="216.8" class="st68" width="56" height="2.5"/>
				<rect x="573.8" y="214.3" class="st67" width="56" height="2.5"/>
				<rect x="573.8" y="211.8" class="st68" width="56" height="2.5"/>
				<rect x="573.8" y="209.2" class="st67" width="56" height="2.5"/>
				<g class="st69">
					<rect x="573.8" y="209.2" class="st70" width="32.8" height="22.6"/>
					<polygon class="st10" points="576.8,211.7 577.1,212.6 578,212.6 577.3,213.1 577.5,214 576.8,213.4 576.1,214 576.4,213.1 
						575.6,212.6 576.5,212.6 					"/>
					<polygon class="st10" points="576.8,215.5 577.1,216.4 578,216.4 577.3,216.9 577.5,217.7 576.8,217.2 576.1,217.7 
						576.4,216.9 575.6,216.4 576.5,216.4 					"/>
					<polygon class="st10" points="576.8,219.3 577.1,220.1 578,220.1 577.3,220.7 577.5,221.5 576.8,221 576.1,221.5 576.4,220.7 
						575.6,220.1 576.5,220.1 					"/>
					<polygon class="st10" points="576.8,223 577.1,223.9 578,223.9 577.3,224.4 577.5,225.3 576.8,224.8 576.1,225.3 576.4,224.4 
						575.6,223.9 576.5,223.9 					"/>
					<polygon class="st10" points="576.8,226.8 577.1,227.7 578,227.7 577.3,228.2 577.5,229.1 576.8,228.5 576.1,229.1 
						576.4,228.2 575.6,227.7 576.5,227.7 					"/>
					<polygon class="st10" points="579.4,213.7 579.7,214.6 580.6,214.6 579.9,215.1 580.1,216 579.4,215.4 578.7,216 579,215.1 
						578.3,214.6 579.2,214.6 					"/>
					<polygon class="st10" points="579.4,217.5 579.7,218.3 580.6,218.3 579.9,218.9 580.1,219.7 579.4,219.2 578.7,219.7 
						579,218.9 578.3,218.3 579.2,218.3 					"/>
					<polygon class="st10" points="579.4,221.3 579.7,222.1 580.6,222.1 579.9,222.6 580.1,223.5 579.4,223 578.7,223.5 579,222.6 
						578.3,222.1 579.2,222.1 					"/>
					<polygon class="st10" points="579.4,225 579.7,225.9 580.6,225.9 579.9,226.4 580.1,227.3 579.4,226.7 578.7,227.3 579,226.4 
						578.3,225.9 579.2,225.9 					"/>
					<polygon class="st10" points="582.1,211.7 582.4,212.6 583.3,212.6 582.5,213.1 582.8,214 582.1,213.4 581.4,214 581.6,213.1 
						580.9,212.6 581.8,212.6 					"/>
					<polygon class="st10" points="582.1,215.5 582.4,216.4 583.3,216.4 582.5,216.9 582.8,217.7 582.1,217.2 581.4,217.7 
						581.6,216.9 580.9,216.4 581.8,216.4 					"/>
					<polygon class="st10" points="582.1,219.3 582.4,220.1 583.3,220.1 582.5,220.7 582.8,221.5 582.1,221 581.4,221.5 
						581.6,220.7 580.9,220.1 581.8,220.1 					"/>
					<polygon class="st10" points="582.1,223 582.4,223.9 583.3,223.9 582.5,224.4 582.8,225.3 582.1,224.8 581.4,225.3 
						581.6,224.4 580.9,223.9 581.8,223.9 					"/>
					<polygon class="st10" points="582.1,226.8 582.4,227.7 583.3,227.7 582.5,228.2 582.8,229.1 582.1,228.5 581.4,229.1 
						581.6,228.2 580.9,227.7 581.8,227.7 					"/>
					<polygon class="st10" points="584.7,213.7 585,214.6 585.9,214.6 585.2,215.1 585.4,216 584.7,215.4 584,216 584.3,215.1 
						583.5,214.6 584.4,214.6 					"/>
					<polygon class="st10" points="584.7,217.5 585,218.3 585.9,218.3 585.2,218.9 585.4,219.7 584.7,219.2 584,219.7 584.3,218.9 
						583.5,218.3 584.4,218.3 					"/>
					<polygon class="st10" points="584.7,221.3 585,222.1 585.9,222.1 585.2,222.6 585.4,223.5 584.7,223 584,223.5 584.3,222.6 
						583.5,222.1 584.4,222.1 					"/>
					<polygon class="st10" points="584.7,225 585,225.9 585.9,225.9 585.2,226.4 585.4,227.3 584.7,226.7 584,227.3 584.3,226.4 
						583.5,225.9 584.4,225.9 					"/>
					<polygon class="st10" points="587.4,211.7 587.7,212.6 588.5,212.6 587.8,213.1 588.1,214 587.4,213.4 586.6,214 586.9,213.1 
						586.2,212.6 587.1,212.6 					"/>
					<polygon class="st10" points="587.4,215.5 587.7,216.4 588.5,216.4 587.8,216.9 588.1,217.7 587.4,217.2 586.6,217.7 
						586.9,216.9 586.2,216.4 587.1,216.4 					"/>
					<polygon class="st10" points="587.4,219.3 587.7,220.1 588.5,220.1 587.8,220.7 588.1,221.5 587.4,221 586.6,221.5 
						586.9,220.7 586.2,220.1 587.1,220.1 					"/>
					<polygon class="st10" points="587.4,223 587.7,223.9 588.5,223.9 587.8,224.4 588.1,225.3 587.4,224.8 586.6,225.3 
						586.9,224.4 586.2,223.9 587.1,223.9 					"/>
					<polygon class="st10" points="587.4,226.8 587.7,227.7 588.5,227.7 587.8,228.2 588.1,229.1 587.4,228.5 586.6,229.1 
						586.9,228.2 586.2,227.7 587.1,227.7 					"/>
					<polygon class="st10" points="590,213.7 590.3,214.6 591.2,214.6 590.5,215.1 590.7,216 590,215.4 589.3,216 589.6,215.1 
						588.8,214.6 589.7,214.6 					"/>
					<polygon class="st10" points="590,217.5 590.3,218.3 591.2,218.3 590.5,218.9 590.7,219.7 590,219.2 589.3,219.7 589.6,218.9 
						588.8,218.3 589.7,218.3 					"/>
					<polygon class="st10" points="590,221.3 590.3,222.1 591.2,222.1 590.5,222.6 590.7,223.5 590,223 589.3,223.5 589.6,222.6 
						588.8,222.1 589.7,222.1 					"/>
					<polygon class="st10" points="590,225 590.3,225.9 591.2,225.9 590.5,226.4 590.7,227.3 590,226.7 589.3,227.3 589.6,226.4 
						588.8,225.9 589.7,225.9 					"/>
					<polygon class="st10" points="592.7,211.7 592.9,212.6 593.8,212.6 593.1,213.1 593.4,214 592.7,213.4 591.9,214 592.2,213.1 
						591.5,212.6 592.4,212.6 					"/>
					<polygon class="st10" points="592.7,215.5 592.9,216.4 593.8,216.4 593.1,216.9 593.4,217.7 592.7,217.2 591.9,217.7 
						592.2,216.9 591.5,216.4 592.4,216.4 					"/>
					<polygon class="st10" points="592.7,219.3 592.9,220.1 593.8,220.1 593.1,220.7 593.4,221.5 592.7,221 591.9,221.5 
						592.2,220.7 591.5,220.1 592.4,220.1 					"/>
					<polygon class="st10" points="592.7,223 592.9,223.9 593.8,223.9 593.1,224.4 593.4,225.3 592.7,224.8 591.9,225.3 
						592.2,224.4 591.5,223.9 592.4,223.9 					"/>
					<polygon class="st10" points="592.7,226.8 592.9,227.7 593.8,227.7 593.1,228.2 593.4,229.1 592.7,228.5 591.9,229.1 
						592.2,228.2 591.5,227.7 592.4,227.7 					"/>
					<polygon class="st10" points="595.3,213.7 595.6,214.6 596.5,214.6 595.7,215.1 596,216 595.3,215.4 594.6,216 594.8,215.1 
						594.1,214.6 595,214.6 					"/>
					<polygon class="st10" points="595.3,217.5 595.6,218.3 596.5,218.3 595.7,218.9 596,219.7 595.3,219.2 594.6,219.7 
						594.8,218.9 594.1,218.3 595,218.3 					"/>
					<polygon class="st10" points="595.3,221.3 595.6,222.1 596.5,222.1 595.7,222.6 596,223.5 595.3,223 594.6,223.5 594.8,222.6 
						594.1,222.1 595,222.1 					"/>
					<polygon class="st10" points="595.3,225 595.6,225.9 596.5,225.9 595.7,226.4 596,227.3 595.3,226.7 594.6,227.3 594.8,226.4 
						594.1,225.9 595,225.9 					"/>
					<polygon class="st10" points="597.9,211.7 598.2,212.6 599.1,212.6 598.4,213.1 598.7,214 597.9,213.4 597.2,214 597.5,213.1 
						596.8,212.6 597.7,212.6 					"/>
					<polygon class="st10" points="597.9,215.5 598.2,216.4 599.1,216.4 598.4,216.9 598.7,217.7 597.9,217.2 597.2,217.7 
						597.5,216.9 596.8,216.4 597.7,216.4 					"/>
					<polygon class="st10" points="597.9,219.3 598.2,220.1 599.1,220.1 598.4,220.7 598.7,221.5 597.9,221 597.2,221.5 
						597.5,220.7 596.8,220.1 597.7,220.1 					"/>
					<polygon class="st10" points="597.9,223 598.2,223.9 599.1,223.9 598.4,224.4 598.7,225.3 597.9,224.8 597.2,225.3 
						597.5,224.4 596.8,223.9 597.7,223.9 					"/>
					<polygon class="st10" points="597.9,226.8 598.2,227.7 599.1,227.7 598.4,228.2 598.7,229.1 597.9,228.5 597.2,229.1 
						597.5,228.2 596.8,227.7 597.7,227.7 					"/>
					<polygon class="st10" points="600.6,213.7 600.8,214.6 601.7,214.6 601,215.1 601.3,216 600.6,215.4 599.8,216 600.1,215.1 
						599.4,214.6 600.3,214.6 					"/>
					<polygon class="st10" points="600.6,217.5 600.8,218.3 601.7,218.3 601,218.9 601.3,219.7 600.6,219.2 599.8,219.7 
						600.1,218.9 599.4,218.3 600.3,218.3 					"/>
					<polygon class="st10" points="600.6,221.3 600.8,222.1 601.7,222.1 601,222.6 601.3,223.5 600.6,223 599.8,223.5 600.1,222.6 
						599.4,222.1 600.3,222.1 					"/>
					<polygon class="st10" points="600.6,225 600.8,225.9 601.7,225.9 601,226.4 601.3,227.3 600.6,226.7 599.8,227.3 600.1,226.4 
						599.4,225.9 600.3,225.9 					"/>
					<polygon class="st10" points="603.2,211.7 603.5,212.6 604.4,212.6 603.7,213.1 604,214 603.2,213.4 602.5,214 602.8,213.1 
						602.1,212.6 603,212.6 					"/>
					<polygon class="st10" points="603.2,215.5 603.5,216.4 604.4,216.4 603.7,216.9 604,217.7 603.2,217.2 602.5,217.7 
						602.8,216.9 602.1,216.4 603,216.4 					"/>
					<polygon class="st10" points="603.2,219.3 603.5,220.1 604.4,220.1 603.7,220.7 604,221.5 603.2,221 602.5,221.5 602.8,220.7 
						602.1,220.1 603,220.1 					"/>
					<polygon class="st10" points="603.2,223 603.5,223.9 604.4,223.9 603.7,224.4 604,225.3 603.2,224.8 602.5,225.3 602.8,224.4 
						602.1,223.9 603,223.9 					"/>
					<polygon class="st10" points="603.2,226.8 603.5,227.7 604.4,227.7 603.7,228.2 604,229.1 603.2,228.5 602.5,229.1 
						602.8,228.2 602.1,227.7 603,227.7 					"/>
				</g>
			</g>
		</g>
	</g>
	<g>
		<defs>
			<rect id="SVGID_40_" x="573.8" y="335.5" width="56.1" height="53.3"/>
		</defs>
		<clipPath id="SVGID_41_">
			<use xlink:href="#SVGID_40_"  style="overflow:visible;"/>
		</clipPath>
		<rect x="573.2" y="333.9" class="st71" width="56.6" height="56.6"/>
		<rect x="568.1" y="333.9" class="st72" width="18.9" height="56.6"/>
		<rect x="616.2" y="333.9" class="st72" width="18.9" height="56.6"/>
		<polygon class="st72" points="607.2,366.1 612.9,363.3 610,361.9 610,359 604.3,361.9 607.2,356.2 604.3,356.2 601.5,351.9 
			598.7,356.2 595.8,356.2 598.7,361.9 593,359 593,361.9 590.1,363.3 595.8,366.1 594.4,369 600.1,369 600.1,373.2 602.9,373.2 
			602.9,369 608.6,369 		"/>
	</g>
</g>
</svg>
